<?xml version="1.0" encoding="UTF-8" standalone="no"?>
<!DOCTYPE svg PUBLIC "-//W3C//DTD SVG 1.1//EN"
 "http://www.w3.org/Graphics/SVG/1.1/DTD/svg11.dtd">
<!-- Generated by graphviz version 2.40.1 (20161225.0304)
 -->
<!-- Title: G Pages: 1 -->
<svg width="750pt" height="3050pt"
 viewBox="0.00 0.00 749.79 3050.00" xmlns="http://www.w3.org/2000/svg" xmlns:xlink="http://www.w3.org/1999/xlink">
<g id="graph0" class="graph" transform="scale(1 1) rotate(0) translate(4 3046)">
<title>G</title>
<polygon fill="#ffffff" stroke="transparent" points="-4,4 -4,-3046 745.7889,-3046 745.7889,4 -4,4"/>
<g id="clust1" class="cluster">
<title>cluster_Global</title>
<path fill="none" stroke="#c0c0c0" d="M20,-44C20,-44 721.7889,-44 721.7889,-44 727.7889,-44 733.7889,-50 733.7889,-56 733.7889,-56 733.7889,-3022 733.7889,-3022 733.7889,-3028 727.7889,-3034 721.7889,-3034 721.7889,-3034 20,-3034 20,-3034 14,-3034 8,-3028 8,-3022 8,-3022 8,-56 8,-56 8,-50 14,-44 20,-44"/>
<text text-anchor="middle" x="370.8945" y="-3021.2" font-family="Times,serif" font-size="11.00" fill="#c0c0c0">Global</text>
</g>
<g id="clust2" class="cluster">
<title>cluster_\APP</title>
<path fill="none" stroke="#c0c0c0" d="M28,-1518C28,-1518 713.7889,-1518 713.7889,-1518 719.7889,-1518 725.7889,-1524 725.7889,-1530 725.7889,-1530 725.7889,-2914 725.7889,-2914 725.7889,-2920 719.7889,-2926 713.7889,-2926 713.7889,-2926 28,-2926 28,-2926 22,-2926 16,-2920 16,-2914 16,-2914 16,-1530 16,-1530 16,-1524 22,-1518 28,-1518"/>
<text text-anchor="middle" x="370.8945" y="-2913.2" font-family="Times,serif" font-size="11.00" fill="#c0c0c0">APP</text>
</g>
<g id="clust3" class="cluster">
<title>cluster_\APP\Components</title>
<path fill="none" stroke="#c0c0c0" d="M524.7889,-1760C524.7889,-1760 705.7889,-1760 705.7889,-1760 711.7889,-1760 717.7889,-1766 717.7889,-1772 717.7889,-1772 717.7889,-2886 717.7889,-2886 717.7889,-2892 711.7889,-2898 705.7889,-2898 705.7889,-2898 524.7889,-2898 524.7889,-2898 518.7889,-2898 512.7889,-2892 512.7889,-2886 512.7889,-2886 512.7889,-1772 512.7889,-1772 512.7889,-1766 518.7889,-1760 524.7889,-1760"/>
<text text-anchor="middle" x="615.2889" y="-2885.2" font-family="Times,serif" font-size="11.00" fill="#c0c0c0">Components</text>
</g>
<g id="clust4" class="cluster">
<title>cluster_\APP\Components\Apps</title>
<path fill="none" stroke="#c0c0c0" d="M540.7889,-2602C540.7889,-2602 689.7889,-2602 689.7889,-2602 695.7889,-2602 701.7889,-2608 701.7889,-2614 701.7889,-2614 701.7889,-2858 701.7889,-2858 701.7889,-2864 695.7889,-2870 689.7889,-2870 689.7889,-2870 540.7889,-2870 540.7889,-2870 534.7889,-2870 528.7889,-2864 528.7889,-2858 528.7889,-2858 528.7889,-2614 528.7889,-2614 528.7889,-2608 534.7889,-2602 540.7889,-2602"/>
<text text-anchor="middle" x="615.2889" y="-2857.2" font-family="Times,serif" font-size="11.00" fill="#c0c0c0">Apps</text>
</g>
<g id="clust5" class="cluster">
<title>cluster_\APP\Components\Apps\Controllers</title>
<path fill="none" stroke="#c0c0c0" d="M548.7889,-2690C548.7889,-2690 681.7889,-2690 681.7889,-2690 687.7889,-2690 693.7889,-2696 693.7889,-2702 693.7889,-2702 693.7889,-2786 693.7889,-2786 693.7889,-2792 687.7889,-2798 681.7889,-2798 681.7889,-2798 548.7889,-2798 548.7889,-2798 542.7889,-2798 536.7889,-2792 536.7889,-2786 536.7889,-2786 536.7889,-2702 536.7889,-2702 536.7889,-2696 542.7889,-2690 548.7889,-2690"/>
<text text-anchor="middle" x="615.2889" y="-2785.2" font-family="Times,serif" font-size="11.00" fill="#c0c0c0">Controllers</text>
</g>
<g id="clust6" class="cluster">
<title>cluster_\APP\Components\Apps\Controllers\Admin</title>
<path fill="none" stroke="#c0c0c0" d="M556.7889,-2698C556.7889,-2698 673.7889,-2698 673.7889,-2698 679.7889,-2698 685.7889,-2704 685.7889,-2710 685.7889,-2710 685.7889,-2758 685.7889,-2758 685.7889,-2764 679.7889,-2770 673.7889,-2770 673.7889,-2770 556.7889,-2770 556.7889,-2770 550.7889,-2770 544.7889,-2764 544.7889,-2758 544.7889,-2758 544.7889,-2710 544.7889,-2710 544.7889,-2704 550.7889,-2698 556.7889,-2698"/>
<text text-anchor="middle" x="615.2889" y="-2757.2" font-family="Times,serif" font-size="11.00" fill="#c0c0c0">Admin</text>
</g>
<g id="clust7" class="cluster">
<title>cluster_\APP\Components\Apps\Models</title>
<path fill="none" stroke="#c0c0c0" d="M580.7889,-2610C580.7889,-2610 649.7889,-2610 649.7889,-2610 655.7889,-2610 661.7889,-2616 661.7889,-2622 661.7889,-2622 661.7889,-2670 661.7889,-2670 661.7889,-2676 655.7889,-2682 649.7889,-2682 649.7889,-2682 580.7889,-2682 580.7889,-2682 574.7889,-2682 568.7889,-2676 568.7889,-2670 568.7889,-2670 568.7889,-2622 568.7889,-2622 568.7889,-2616 574.7889,-2610 580.7889,-2610"/>
<text text-anchor="middle" x="615.2889" y="-2669.2" font-family="Times,serif" font-size="11.00" fill="#c0c0c0">Models</text>
</g>
<g id="clust8" class="cluster">
<title>cluster_\APP\Components\CCK</title>
<path fill="none" stroke="#c0c0c0" d="M532.7889,-2000C532.7889,-2000 697.7889,-2000 697.7889,-2000 703.7889,-2000 709.7889,-2006 709.7889,-2012 709.7889,-2012 709.7889,-2582 709.7889,-2582 709.7889,-2588 703.7889,-2594 697.7889,-2594 697.7889,-2594 532.7889,-2594 532.7889,-2594 526.7889,-2594 520.7889,-2588 520.7889,-2582 520.7889,-2582 520.7889,-2012 520.7889,-2012 520.7889,-2006 526.7889,-2000 532.7889,-2000"/>
<text text-anchor="middle" x="615.2889" y="-2581.2" font-family="Times,serif" font-size="11.00" fill="#c0c0c0">CCK</text>
</g>
<g id="clust9" class="cluster">
<title>cluster_\APP\Components\CCK\Controllers</title>
<path fill="none" stroke="#c0c0c0" d="M540.7889,-2142C540.7889,-2142 689.7889,-2142 689.7889,-2142 695.7889,-2142 701.7889,-2148 701.7889,-2154 701.7889,-2154 701.7889,-2554 701.7889,-2554 701.7889,-2560 695.7889,-2566 689.7889,-2566 689.7889,-2566 540.7889,-2566 540.7889,-2566 534.7889,-2566 528.7889,-2560 528.7889,-2554 528.7889,-2554 528.7889,-2154 528.7889,-2154 528.7889,-2148 534.7889,-2142 540.7889,-2142"/>
<text text-anchor="middle" x="615.2889" y="-2553.2" font-family="Times,serif" font-size="11.00" fill="#c0c0c0">Controllers</text>
</g>
<g id="clust10" class="cluster">
<title>cluster_\APP\Components\CCK\Controllers\Admin</title>
<path fill="none" stroke="#c0c0c0" d="M548.7889,-2150C548.7889,-2150 681.7889,-2150 681.7889,-2150 687.7889,-2150 693.7889,-2156 693.7889,-2162 693.7889,-2162 693.7889,-2400 693.7889,-2400 693.7889,-2406 687.7889,-2412 681.7889,-2412 681.7889,-2412 548.7889,-2412 548.7889,-2412 542.7889,-2412 536.7889,-2406 536.7889,-2400 536.7889,-2400 536.7889,-2162 536.7889,-2162 536.7889,-2156 542.7889,-2150 548.7889,-2150"/>
<text text-anchor="middle" x="615.2889" y="-2399.2" font-family="Times,serif" font-size="11.00" fill="#c0c0c0">Admin</text>
</g>
<g id="clust11" class="cluster">
<title>cluster_\APP\Components\CCK\Controllers\Admin\Items</title>
<path fill="none" stroke="#c0c0c0" d="M556.7889,-2258C556.7889,-2258 673.7889,-2258 673.7889,-2258 679.7889,-2258 685.7889,-2264 685.7889,-2270 685.7889,-2270 685.7889,-2372 685.7889,-2372 685.7889,-2378 679.7889,-2384 673.7889,-2384 673.7889,-2384 556.7889,-2384 556.7889,-2384 550.7889,-2384 544.7889,-2378 544.7889,-2372 544.7889,-2372 544.7889,-2270 544.7889,-2270 544.7889,-2264 550.7889,-2258 556.7889,-2258"/>
<text text-anchor="middle" x="615.2889" y="-2371.2" font-family="Times,serif" font-size="11.00" fill="#c0c0c0">Items</text>
</g>
<g id="clust12" class="cluster">
<title>cluster_\APP\Components\CCK\Controllers\Items</title>
<path fill="none" stroke="#c0c0c0" d="M556.7889,-2466C556.7889,-2466 673.7889,-2466 673.7889,-2466 679.7889,-2466 685.7889,-2472 685.7889,-2478 685.7889,-2478 685.7889,-2526 685.7889,-2526 685.7889,-2532 679.7889,-2538 673.7889,-2538 673.7889,-2538 556.7889,-2538 556.7889,-2538 550.7889,-2538 544.7889,-2532 544.7889,-2526 544.7889,-2526 544.7889,-2478 544.7889,-2478 544.7889,-2472 550.7889,-2466 556.7889,-2466"/>
<text text-anchor="middle" x="615.2889" y="-2525.2" font-family="Times,serif" font-size="11.00" fill="#c0c0c0">Items</text>
</g>
<g id="clust13" class="cluster">
<title>cluster_\APP\Components\CCK\Models</title>
<path fill="none" stroke="#c0c0c0" d="M577.2889,-2008C577.2889,-2008 653.2889,-2008 653.2889,-2008 659.2889,-2008 665.2889,-2014 665.2889,-2020 665.2889,-2020 665.2889,-2122 665.2889,-2122 665.2889,-2128 659.2889,-2134 653.2889,-2134 653.2889,-2134 577.2889,-2134 577.2889,-2134 571.2889,-2134 565.2889,-2128 565.2889,-2122 565.2889,-2122 565.2889,-2020 565.2889,-2020 565.2889,-2014 571.2889,-2008 577.2889,-2008"/>
<text text-anchor="middle" x="615.2889" y="-2121.2" font-family="Times,serif" font-size="11.00" fill="#c0c0c0">Models</text>
</g>
<g id="clust14" class="cluster">
<title>cluster_\APP\Components\Users</title>
<path fill="none" stroke="#c0c0c0" d="M547.7889,-1768C547.7889,-1768 682.7889,-1768 682.7889,-1768 688.7889,-1768 694.7889,-1774 694.7889,-1780 694.7889,-1780 694.7889,-1980 694.7889,-1980 694.7889,-1986 688.7889,-1992 682.7889,-1992 682.7889,-1992 547.7889,-1992 547.7889,-1992 541.7889,-1992 535.7889,-1986 535.7889,-1980 535.7889,-1980 535.7889,-1780 535.7889,-1780 535.7889,-1774 541.7889,-1768 547.7889,-1768"/>
<text text-anchor="middle" x="615.2889" y="-1979.2" font-family="Times,serif" font-size="11.00" fill="#c0c0c0">Users</text>
</g>
<g id="clust15" class="cluster">
<title>cluster_\APP\Components\Users\Controllers</title>
<path fill="none" stroke="#c0c0c0" d="M555.7889,-1856C555.7889,-1856 674.7889,-1856 674.7889,-1856 680.7889,-1856 686.7889,-1862 686.7889,-1868 686.7889,-1868 686.7889,-1952 686.7889,-1952 686.7889,-1958 680.7889,-1964 674.7889,-1964 674.7889,-1964 555.7889,-1964 555.7889,-1964 549.7889,-1964 543.7889,-1958 543.7889,-1952 543.7889,-1952 543.7889,-1868 543.7889,-1868 543.7889,-1862 549.7889,-1856 555.7889,-1856"/>
<text text-anchor="middle" x="615.2889" y="-1951.2" font-family="Times,serif" font-size="11.00" fill="#c0c0c0">Controllers</text>
</g>
<g id="clust16" class="cluster">
<title>cluster_\APP\Components\Users\Controllers\Admin</title>
<path fill="none" stroke="#c0c0c0" d="M563.7889,-1864C563.7889,-1864 666.7889,-1864 666.7889,-1864 672.7889,-1864 678.7889,-1870 678.7889,-1876 678.7889,-1876 678.7889,-1924 678.7889,-1924 678.7889,-1930 672.7889,-1936 666.7889,-1936 666.7889,-1936 563.7889,-1936 563.7889,-1936 557.7889,-1936 551.7889,-1930 551.7889,-1924 551.7889,-1924 551.7889,-1876 551.7889,-1876 551.7889,-1870 557.7889,-1864 563.7889,-1864"/>
<text text-anchor="middle" x="615.2889" y="-1923.2" font-family="Times,serif" font-size="11.00" fill="#c0c0c0">Admin</text>
</g>
<g id="clust17" class="cluster">
<title>cluster_\APP\Components\Users\Models</title>
<path fill="none" stroke="#c0c0c0" d="M577.2889,-1776C577.2889,-1776 653.2889,-1776 653.2889,-1776 659.2889,-1776 665.2889,-1782 665.2889,-1788 665.2889,-1788 665.2889,-1836 665.2889,-1836 665.2889,-1842 659.2889,-1848 653.2889,-1848 653.2889,-1848 577.2889,-1848 577.2889,-1848 571.2889,-1848 565.2889,-1842 565.2889,-1836 565.2889,-1836 565.2889,-1788 565.2889,-1788 565.2889,-1782 571.2889,-1776 577.2889,-1776"/>
<text text-anchor="middle" x="615.2889" y="-1835.2" font-family="Times,serif" font-size="11.00" fill="#c0c0c0">Models</text>
</g>
<g id="clust18" class="cluster">
<title>cluster_\APP\Controllers</title>
<path fill="none" stroke="#c0c0c0" d="M184,-2285C184,-2285 473.3945,-2285 473.3945,-2285 479.3945,-2285 485.3945,-2291 485.3945,-2297 485.3945,-2297 485.3945,-2345 485.3945,-2345 485.3945,-2351 479.3945,-2357 473.3945,-2357 473.3945,-2357 184,-2357 184,-2357 178,-2357 172,-2351 172,-2345 172,-2345 172,-2297 172,-2297 172,-2291 178,-2285 184,-2285"/>
<text text-anchor="middle" x="328.6972" y="-2344.2" font-family="Times,serif" font-size="11.00" fill="#c0c0c0">Controllers</text>
</g>
<g id="clust19" class="cluster">
<title>cluster_\APP\Helpers</title>
<path fill="none" stroke="#c0c0c0" d="M580.7889,-1680C580.7889,-1680 649.7889,-1680 649.7889,-1680 655.7889,-1680 661.7889,-1686 661.7889,-1692 661.7889,-1692 661.7889,-1740 661.7889,-1740 661.7889,-1746 655.7889,-1752 649.7889,-1752 649.7889,-1752 580.7889,-1752 580.7889,-1752 574.7889,-1752 568.7889,-1746 568.7889,-1740 568.7889,-1740 568.7889,-1692 568.7889,-1692 568.7889,-1686 574.7889,-1680 580.7889,-1680"/>
<text text-anchor="middle" x="615.2889" y="-1739.2" font-family="Times,serif" font-size="11.00" fill="#c0c0c0">Helpers</text>
</g>
<g id="clust20" class="cluster">
<title>cluster_\API</title>
<path fill="none" stroke="#c0c0c0" d="M378.8945,-52C378.8945,-52 678.2889,-52 678.2889,-52 684.2889,-52 690.2889,-58 690.2889,-64 690.2889,-64 690.2889,-1382 690.2889,-1382 690.2889,-1388 684.2889,-1394 678.2889,-1394 678.2889,-1394 378.8945,-1394 378.8945,-1394 372.8945,-1394 366.8945,-1388 366.8945,-1382 366.8945,-1382 366.8945,-64 366.8945,-64 366.8945,-58 372.8945,-52 378.8945,-52"/>
<text text-anchor="middle" x="528.5917" y="-1381.2" font-family="Times,serif" font-size="11.00" fill="#c0c0c0">API</text>
</g>
<g id="clust21" class="cluster">
<title>cluster_\API\DB</title>
<path fill="none" stroke="#c0c0c0" d="M560.2889,-862C560.2889,-862 670.2889,-862 670.2889,-862 676.2889,-862 682.2889,-868 682.2889,-874 682.2889,-874 682.2889,-1354 682.2889,-1354 682.2889,-1360 676.2889,-1366 670.2889,-1366 670.2889,-1366 560.2889,-1366 560.2889,-1366 554.2889,-1366 548.2889,-1360 548.2889,-1354 548.2889,-1354 548.2889,-874 548.2889,-874 548.2889,-868 554.2889,-862 560.2889,-862"/>
<text text-anchor="middle" x="615.2889" y="-1353.2" font-family="Times,serif" font-size="11.00" fill="#c0c0c0">DB</text>
</g>
<g id="clust22" class="cluster">
<title>cluster_\API\DB\Cache</title>
<path fill="none" stroke="#c0c0c0" d="M587.2889,-1266C587.2889,-1266 643.2889,-1266 643.2889,-1266 649.2889,-1266 655.2889,-1272 655.2889,-1278 655.2889,-1278 655.2889,-1326 655.2889,-1326 655.2889,-1332 649.2889,-1338 643.2889,-1338 643.2889,-1338 587.2889,-1338 587.2889,-1338 581.2889,-1338 575.2889,-1332 575.2889,-1326 575.2889,-1326 575.2889,-1278 575.2889,-1278 575.2889,-1272 581.2889,-1266 587.2889,-1266"/>
<text text-anchor="middle" x="615.2889" y="-1325.2" font-family="Times,serif" font-size="11.00" fill="#c0c0c0">Cache</text>
</g>
<g id="clust23" class="cluster">
<title>cluster_\API\DB\ORM</title>
<path fill="none" stroke="#c0c0c0" d="M580.7889,-1078C580.7889,-1078 649.7889,-1078 649.7889,-1078 655.7889,-1078 661.7889,-1084 661.7889,-1090 661.7889,-1090 661.7889,-1246 661.7889,-1246 661.7889,-1252 655.7889,-1258 649.7889,-1258 649.7889,-1258 580.7889,-1258 580.7889,-1258 574.7889,-1258 568.7889,-1252 568.7889,-1246 568.7889,-1246 568.7889,-1090 568.7889,-1090 568.7889,-1084 574.7889,-1078 580.7889,-1078"/>
<text text-anchor="middle" x="615.2889" y="-1245.2" font-family="Times,serif" font-size="11.00" fill="#c0c0c0">ORM</text>
</g>
<g id="clust24" class="cluster">
<title>cluster_\API\Session</title>
<path fill="none" stroke="#c0c0c0" d="M562.2889,-646C562.2889,-646 668.2889,-646 668.2889,-646 674.2889,-646 680.2889,-652 680.2889,-658 680.2889,-658 680.2889,-842 680.2889,-842 680.2889,-848 674.2889,-854 668.2889,-854 668.2889,-854 562.2889,-854 562.2889,-854 556.2889,-854 550.2889,-848 550.2889,-842 550.2889,-842 550.2889,-658 550.2889,-658 550.2889,-652 556.2889,-646 562.2889,-646"/>
<text text-anchor="middle" x="615.2889" y="-841.2" font-family="Times,serif" font-size="11.00" fill="#c0c0c0">Session</text>
</g>
<g id="clust25" class="cluster">
<title>cluster_\API\Session\Handler</title>
<path fill="none" stroke="#c0c0c0" d="M570.2889,-700C570.2889,-700 660.2889,-700 660.2889,-700 666.2889,-700 672.2889,-706 672.2889,-712 672.2889,-712 672.2889,-814 672.2889,-814 672.2889,-820 666.2889,-826 660.2889,-826 660.2889,-826 570.2889,-826 570.2889,-826 564.2889,-826 558.2889,-820 558.2889,-814 558.2889,-814 558.2889,-712 558.2889,-712 558.2889,-706 564.2889,-700 570.2889,-700"/>
<text text-anchor="middle" x="615.2889" y="-813.2" font-family="Times,serif" font-size="11.00" fill="#c0c0c0">Handler</text>
</g>
<g id="clust26" class="cluster">
<title>cluster_\API\Store</title>
<path fill="none" stroke="#c0c0c0" d="M386.8945,-60C386.8945,-60 647.7889,-60 647.7889,-60 653.7889,-60 659.7889,-66 659.7889,-72 659.7889,-72 659.7889,-256 659.7889,-256 659.7889,-262 653.7889,-268 647.7889,-268 647.7889,-268 386.8945,-268 386.8945,-268 380.8945,-268 374.8945,-262 374.8945,-256 374.8945,-256 374.8945,-72 374.8945,-72 374.8945,-66 380.8945,-60 386.8945,-60"/>
<text text-anchor="middle" x="517.3417" y="-255.2" font-family="Times,serif" font-size="11.00" fill="#c0c0c0">Store</text>
</g>
<g id="clust27" class="cluster">
<title>cluster_\API\Store\Response</title>
<path fill="none" stroke="#c0c0c0" d="M590.7889,-114C590.7889,-114 639.7889,-114 639.7889,-114 645.7889,-114 651.7889,-120 651.7889,-126 651.7889,-126 651.7889,-228 651.7889,-228 651.7889,-234 645.7889,-240 639.7889,-240 639.7889,-240 590.7889,-240 590.7889,-240 584.7889,-240 578.7889,-234 578.7889,-228 578.7889,-228 578.7889,-126 578.7889,-126 578.7889,-120 584.7889,-114 590.7889,-114"/>
<text text-anchor="middle" x="615.2889" y="-227.2" font-family="Times,serif" font-size="11.00" fill="#c0c0c0">Response</text>
</g>
<g id="clust28" class="cluster">
<title>cluster_Global\APP</title>
<path fill="none" stroke="#c0c0c0" d="M382.748,-2934C382.748,-2934 454.0409,-2934 454.0409,-2934 460.0409,-2934 466.0409,-2940 466.0409,-2946 466.0409,-2946 466.0409,-2994 466.0409,-2994 466.0409,-3000 460.0409,-3006 454.0409,-3006 454.0409,-3006 382.748,-3006 382.748,-3006 376.748,-3006 370.748,-3000 370.748,-2994 370.748,-2994 370.748,-2946 370.748,-2946 370.748,-2940 376.748,-2934 382.748,-2934"/>
<text text-anchor="middle" x="418.3945" y="-2993.2" font-family="Times,serif" font-size="11.00" fill="#c0c0c0">APP</text>
</g>
<g id="clust29" class="cluster">
<title>cluster_Global\PHPUnit</title>
<path fill="none" stroke="#c0c0c0" d="M360.4493,-1402C360.4493,-1402 476.3397,-1402 476.3397,-1402 482.3397,-1402 488.3397,-1408 488.3397,-1414 488.3397,-1414 488.3397,-1498 488.3397,-1498 488.3397,-1504 482.3397,-1510 476.3397,-1510 476.3397,-1510 360.4493,-1510 360.4493,-1510 354.4493,-1510 348.4493,-1504 348.4493,-1498 348.4493,-1498 348.4493,-1414 348.4493,-1414 348.4493,-1408 354.4493,-1402 360.4493,-1402"/>
<text text-anchor="middle" x="418.3945" y="-1497.2" font-family="Times,serif" font-size="11.00" fill="#c0c0c0">PHPUnit</text>
</g>
<g id="clust30" class="cluster">
<title>cluster_Global\PHPUnit\Framework</title>
<path fill="none" stroke="#c0c0c0" d="M368.4493,-1410C368.4493,-1410 468.3397,-1410 468.3397,-1410 474.3397,-1410 480.3397,-1416 480.3397,-1422 480.3397,-1422 480.3397,-1470 480.3397,-1470 480.3397,-1476 474.3397,-1482 468.3397,-1482 468.3397,-1482 368.4493,-1482 368.4493,-1482 362.4493,-1482 356.4493,-1476 356.4493,-1470 356.4493,-1470 356.4493,-1422 356.4493,-1422 356.4493,-1416 362.4493,-1410 368.4493,-1410"/>
<text text-anchor="middle" x="418.3945" y="-1469.2" font-family="Times,serif" font-size="11.00" fill="#c0c0c0">Framework</text>
</g>
<!-- \\APP\\Components\\Apps\\Controllers\\Admin\\selectController -->
<g id="node1" class="node">
<title>\\APP\\Components\\Apps\\Controllers\\Admin\\selectController</title>
<polygon fill="none" stroke="#000000" points="677.7889,-2742 552.7889,-2742 552.7889,-2706 677.7889,-2706 677.7889,-2742"/>
<text text-anchor="middle" x="615.2889" y="-2721.2" font-family="Courier,monospace" font-size="11.00" fill="#000000">selectController</text>
</g>
<!-- \\APP\\Controllers\\AdminController -->
<g id="node14" class="node">
<title>\\APP\\Controllers\\AdminController</title>
<polygon fill="none" stroke="#000000" points="477.3945,-2329 359.3945,-2329 359.3945,-2293 477.3945,-2293 477.3945,-2329"/>
<text text-anchor="middle" x="418.3945" y="-2308.2" font-family="Courier,monospace" font-size="11.00" fill="#000000">AdminController</text>
</g>
<!-- \\APP\\Components\\Apps\\Controllers\\Admin\\selectController&#45;&gt;\\APP\\Controllers\\AdminController -->
<g id="edge1" class="edge">
<title>\\APP\\Components\\Apps\\Controllers\\Admin\\selectController&#45;&gt;\\APP\\Controllers\\AdminController</title>
<path fill="none" stroke="#000000" d="M552.537,-2711.458C537.7801,-2705.8426 523.3076,-2697.7258 512.7889,-2686 466.0128,-2633.8557 432.7721,-2417.534 422.0825,-2339.3515"/>
<polygon fill="none" stroke="#000000" points="425.528,-2338.7114 420.7248,-2329.2679 418.5906,-2339.6456 425.528,-2338.7114"/>
</g>
<!-- \\APP\\Components\\Apps\\Models\\AppsModel -->
<g id="node2" class="node">
<title>\\APP\\Components\\Apps\\Models\\AppsModel</title>
<polygon fill="none" stroke="#000000" points="653.7889,-2654 576.7889,-2654 576.7889,-2618 653.7889,-2618 653.7889,-2654"/>
<text text-anchor="middle" x="615.2889" y="-2633.2" font-family="Courier,monospace" font-size="11.00" fill="#000000">AppsModel</text>
</g>
<!-- CMSModel -->
<g id="node45" class="node">
<title>CMSModel</title>
<ellipse fill="none" stroke="#000000" cx="418.3945" cy="-18" rx="62.2891" ry="18"/>
<text text-anchor="middle" x="418.3945" y="-14.3" font-family="Times,serif" font-size="14.00" fill="#000000">CMSModel</text>
</g>
<!-- \\APP\\Components\\Apps\\Models\\AppsModel&#45;&gt;CMSModel -->
<g id="edge2" class="edge">
<title>\\APP\\Components\\Apps\\Models\\AppsModel&#45;&gt;CMSModel</title>
<path fill="none" stroke="#000000" d="M584.2132,-2617.6848C559.7537,-2601.3131 527.4334,-2574.8609 512.7889,-2542 484.6779,-2478.9215 523.933,-115.1798 488.3397,-56 483.5797,-48.0858 476.5384,-41.714 468.7313,-36.6186"/>
<polygon fill="none" stroke="#000000" points="470.4381,-33.5626 460.0308,-31.5781 466.929,-39.6195 470.4381,-33.5626"/>
</g>
<!-- \\APP\\Components\\Apps\\CCKController -->
<g id="node3" class="node">
<title>\\APP\\Components\\Apps\\CCKController</title>
<polygon fill="none" stroke="#000000" points="667.2889,-2842 563.2889,-2842 563.2889,-2806 667.2889,-2806 667.2889,-2842"/>
<text text-anchor="middle" x="615.2889" y="-2821.2" font-family="Courier,monospace" font-size="11.00" fill="#000000">CCKController</text>
</g>
<!-- \\APP\\Controllers\\CMSController -->
<g id="node15" class="node">
<title>\\APP\\Controllers\\CMSController</title>
<polygon fill="none" stroke="#000000" points="284,-2329 180,-2329 180,-2293 284,-2293 284,-2329"/>
<text text-anchor="middle" x="232" y="-2308.2" font-family="Courier,monospace" font-size="11.00" fill="#000000">CMSController</text>
</g>
<!-- \\APP\\Components\\Apps\\CCKController&#45;&gt;\\APP\\Controllers\\CMSController -->
<g id="edge3" class="edge">
<title>\\APP\\Components\\Apps\\CCKController&#45;&gt;\\APP\\Controllers\\CMSController</title>
<path fill="none" stroke="#000000" d="M567.6304,-2805.9388C549.4358,-2797.7584 529.1515,-2786.9843 512.7889,-2774 460.7221,-2732.6831 475.4414,-2692.1129 418.3945,-2658"/>
</g>
<!-- \\APP\\Components\\CCK\\Controllers\\Admin\\Items\\selectController -->
<g id="node4" class="node">
<title>\\APP\\Components\\CCK\\Controllers\\Admin\\Items\\selectController</title>
<polygon fill="none" stroke="#000000" points="677.7889,-2356 552.7889,-2356 552.7889,-2320 677.7889,-2320 677.7889,-2356"/>
<text text-anchor="middle" x="615.2889" y="-2335.2" font-family="Courier,monospace" font-size="11.00" fill="#000000">selectController</text>
</g>
<!-- \\APP\\Components\\CCK\\Controllers\\Admin\\Items\\selectController&#45;&gt;\\APP\\Controllers\\AdminController -->
<g id="edge4" class="edge">
<title>\\APP\\Components\\CCK\\Controllers\\Admin\\Items\\selectController&#45;&gt;\\APP\\Controllers\\AdminController</title>
<path fill="none" stroke="#000000" d="M552.7198,-2329.4199C531.9169,-2326.5673 508.6381,-2323.375 487.3784,-2320.4597"/>
<polygon fill="none" stroke="#000000" points="487.8302,-2316.989 477.4474,-2319.0979 486.8792,-2323.9241 487.8302,-2316.989"/>
</g>
<!-- \\APP\\Components\\CCK\\Controllers\\Admin\\Items\\updateController -->
<g id="node5" class="node">
<title>\\APP\\Components\\CCK\\Controllers\\Admin\\Items\\updateController</title>
<polygon fill="none" stroke="#000000" points="677.7889,-2302 552.7889,-2302 552.7889,-2266 677.7889,-2266 677.7889,-2302"/>
<text text-anchor="middle" x="615.2889" y="-2281.2" font-family="Courier,monospace" font-size="11.00" fill="#000000">updateController</text>
</g>
<!-- \\APP\\Components\\CCK\\Controllers\\Admin\\Items\\updateController&#45;&gt;\\APP\\Controllers\\AdminController -->
<g id="edge5" class="edge">
<title>\\APP\\Components\\CCK\\Controllers\\Admin\\Items\\updateController&#45;&gt;\\APP\\Controllers\\AdminController</title>
<path fill="none" stroke="#000000" d="M552.7198,-2292.5801C531.9169,-2295.4327 508.6381,-2298.625 487.3784,-2301.5403"/>
<polygon fill="none" stroke="#000000" points="486.8792,-2298.0759 477.4474,-2302.9021 487.8302,-2305.011 486.8792,-2298.0759"/>
</g>
<!-- \\APP\\Components\\CCK\\Controllers\\Admin\\selectController -->
<g id="node6" class="node">
<title>\\APP\\Components\\CCK\\Controllers\\Admin\\selectController</title>
<polygon fill="none" stroke="#000000" points="677.7889,-2248 552.7889,-2248 552.7889,-2212 677.7889,-2212 677.7889,-2248"/>
<text text-anchor="middle" x="615.2889" y="-2227.2" font-family="Courier,monospace" font-size="11.00" fill="#000000">selectController</text>
</g>
<!-- \\APP\\Components\\CCK\\Controllers\\Admin\\selectController&#45;&gt;\\APP\\Controllers\\AdminController -->
<g id="edge6" class="edge">
<title>\\APP\\Components\\CCK\\Controllers\\Admin\\selectController&#45;&gt;\\APP\\Controllers\\AdminController</title>
<path fill="none" stroke="#000000" d="M552.5249,-2241.4107C539.1643,-2244.7436 525.3152,-2248.9004 512.7889,-2254 491.4994,-2262.6673 469.4152,-2275.7433 451.9651,-2287.1858"/>
<polygon fill="none" stroke="#000000" points="449.6566,-2284.5192 443.2911,-2292.9886 453.5488,-2290.3373 449.6566,-2284.5192"/>
</g>
<!-- \\APP\\Components\\CCK\\Controllers\\Admin\\updateController -->
<g id="node7" class="node">
<title>\\APP\\Components\\CCK\\Controllers\\Admin\\updateController</title>
<polygon fill="none" stroke="#000000" points="677.7889,-2194 552.7889,-2194 552.7889,-2158 677.7889,-2158 677.7889,-2194"/>
<text text-anchor="middle" x="615.2889" y="-2173.2" font-family="Courier,monospace" font-size="11.00" fill="#000000">updateController</text>
</g>
<!-- \\APP\\Components\\CCK\\Controllers\\Admin\\updateController&#45;&gt;\\APP\\Controllers\\AdminController -->
<g id="edge7" class="edge">
<title>\\APP\\Components\\CCK\\Controllers\\Admin\\updateController&#45;&gt;\\APP\\Controllers\\AdminController</title>
<path fill="none" stroke="#000000" d="M552.6929,-2186.1892C538.9027,-2190.115 524.8314,-2195.5329 512.7889,-2203 479.6144,-2223.5703 451.6756,-2259.4411 434.9985,-2284.163"/>
<polygon fill="none" stroke="#000000" points="431.9434,-2282.4389 429.375,-2292.7177 437.7928,-2286.2841 431.9434,-2282.4389"/>
</g>
<!-- \\APP\\Components\\CCK\\Controllers\\Items\\selectController -->
<g id="node8" class="node">
<title>\\APP\\Components\\CCK\\Controllers\\Items\\selectController</title>
<polygon fill="none" stroke="#000000" points="677.7889,-2510 552.7889,-2510 552.7889,-2474 677.7889,-2474 677.7889,-2510"/>
<text text-anchor="middle" x="615.2889" y="-2489.2" font-family="Courier,monospace" font-size="11.00" fill="#000000">selectController</text>
</g>
<!-- \\APP\\Components\\CCK\\Controllers\\Items\\selectController&#45;&gt;\\APP\\Controllers\\CMSController -->
<g id="edge9" class="edge">
<title>\\APP\\Components\\CCK\\Controllers\\Items\\selectController&#45;&gt;\\APP\\Controllers\\CMSController</title>
<path fill="none" stroke="#000000" d="M597.6276,-2510.2067C553.0477,-2555.6835 438.1087,-2669.7887 418.3945,-2658"/>
<path fill="none" stroke="#000000" d="M418.3945,-2658C298.6161,-2586.375 251.3538,-2408.4226 237.1102,-2339.1894"/>
<polygon fill="none" stroke="#000000" points="240.4772,-2338.1741 235.1016,-2329.0443 233.6105,-2339.5337 240.4772,-2338.1741"/>
</g>
<!-- \\APP\\Components\\CCK\\Controllers\\adminController -->
<g id="node9" class="node">
<title>\\APP\\Components\\CCK\\Controllers\\adminController</title>
<polygon fill="none" stroke="#000000" points="674.2889,-2456 556.2889,-2456 556.2889,-2420 674.2889,-2420 674.2889,-2456"/>
<text text-anchor="middle" x="615.2889" y="-2435.2" font-family="Courier,monospace" font-size="11.00" fill="#000000">adminController</text>
</g>
<!-- \\APP\\Components\\CCK\\Controllers\\adminController&#45;&gt;\\APP\\Controllers\\AdminController -->
<g id="edge8" class="edge">
<title>\\APP\\Components\\CCK\\Controllers\\adminController&#45;&gt;\\APP\\Controllers\\AdminController</title>
<path fill="none" stroke="#000000" d="M572.7143,-2419.9105C553.8163,-2411.2102 531.6366,-2400.0555 512.7889,-2388 488.8418,-2372.6827 464.0188,-2352.2227 445.8416,-2336.2431"/>
<polygon fill="none" stroke="#000000" points="447.7816,-2333.2843 437.9846,-2329.2509 443.1281,-2338.5135 447.7816,-2333.2843"/>
</g>
<!-- \\APP\\Components\\CCK\\Models\\CCKModel -->
<g id="node10" class="node">
<title>\\APP\\Components\\CCK\\Models\\CCKModel</title>
<polygon fill="none" stroke="#000000" points="650.7889,-2106 579.7889,-2106 579.7889,-2070 650.7889,-2070 650.7889,-2106"/>
<text text-anchor="middle" x="615.2889" y="-2085.2" font-family="Courier,monospace" font-size="11.00" fill="#000000">CCKModel</text>
</g>
<!-- \\APP\\Components\\CCK\\Models\\CCKModel&#45;&gt;CMSModel -->
<g id="edge10" class="edge">
<title>\\APP\\Components\\CCK\\Models\\CCKModel&#45;&gt;CMSModel</title>
<path fill="none" stroke="#000000" d="M579.7411,-2088.8222C556.7712,-2087.2557 528.3568,-2080.947 512.7889,-2061 478.5199,-2017.0914 517.1033,-103.6968 488.3397,-56 483.5704,-48.0914 476.5246,-41.7223 468.716,-36.6278"/>
<polygon fill="none" stroke="#000000" points="470.4224,-33.5715 460.0149,-31.5876 466.9136,-39.6287 470.4224,-33.5715"/>
</g>
<!-- \\APP\\Components\\CCK\\Models\\ItemsModel -->
<g id="node11" class="node">
<title>\\APP\\Components\\CCK\\Models\\ItemsModel</title>
<polygon fill="none" stroke="#000000" points="657.2889,-2052 573.2889,-2052 573.2889,-2016 657.2889,-2016 657.2889,-2052"/>
<text text-anchor="middle" x="615.2889" y="-2031.2" font-family="Courier,monospace" font-size="11.00" fill="#000000">ItemsModel</text>
</g>
<!-- \\APP\\Components\\CCK\\Models\\ItemsModel&#45;&gt;CMSModel -->
<g id="edge11" class="edge">
<title>\\APP\\Components\\CCK\\Models\\ItemsModel&#45;&gt;CMSModel</title>
<path fill="none" stroke="#000000" d="M584.2402,-2015.6727C559.7969,-1999.2939 527.485,-1972.8378 512.7889,-1940 470.0297,-1844.4563 542.4308,-145.6165 488.3397,-56 483.5673,-48.0932 476.5201,-41.725 468.7109,-36.6309"/>
<polygon fill="none" stroke="#000000" points="470.4172,-33.5745 460.0097,-31.5908 466.9085,-39.6317 470.4172,-33.5745"/>
</g>
<!-- \\APP\\Components\\Users\\Controllers\\Admin\\UserController -->
<g id="node12" class="node">
<title>\\APP\\Components\\Users\\Controllers\\Admin\\UserController</title>
<polygon fill="none" stroke="#000000" points="670.7889,-1908 559.7889,-1908 559.7889,-1872 670.7889,-1872 670.7889,-1908"/>
<text text-anchor="middle" x="615.2889" y="-1887.2" font-family="Courier,monospace" font-size="11.00" fill="#000000">UserController</text>
</g>
<!-- \\APP\\Components\\Users\\Controllers\\Admin\\UserController&#45;&gt;\\APP\\Controllers\\AdminController -->
<g id="edge12" class="edge">
<title>\\APP\\Components\\Users\\Controllers\\Admin\\UserController&#45;&gt;\\APP\\Controllers\\AdminController</title>
<path fill="none" stroke="#000000" d="M594.2639,-1908.1083C571.1964,-1929.0354 534.562,-1965.556 512.7889,-2004 459.2212,-2098.583 432.5005,-2227.1318 422.801,-2283.0757"/>
<polygon fill="none" stroke="#000000" points="419.346,-2282.5163 421.1351,-2292.959 426.2486,-2283.6799 419.346,-2282.5163"/>
</g>
<!-- \\APP\\Components\\Users\\Models\\UsersModel -->
<g id="node13" class="node">
<title>\\APP\\Components\\Users\\Models\\UsersModel</title>
<polygon fill="none" stroke="#000000" points="657.2889,-1820 573.2889,-1820 573.2889,-1784 657.2889,-1784 657.2889,-1820"/>
<text text-anchor="middle" x="615.2889" y="-1799.2" font-family="Courier,monospace" font-size="11.00" fill="#000000">UsersModel</text>
</g>
<!-- \\APP\\Components\\Users\\Models\\UsersModel&#45;&gt;CMSModel -->
<g id="edge13" class="edge">
<title>\\APP\\Components\\Users\\Models\\UsersModel&#45;&gt;CMSModel</title>
<path fill="none" stroke="#000000" d="M573.2838,-1794.347C551.3331,-1787.9989 526.2916,-1776.5346 512.7889,-1756 460.894,-1677.0791 537.2057,-136.8314 488.3397,-56 483.5617,-48.0966 476.5119,-41.73 468.7018,-36.6364"/>
<polygon fill="none" stroke="#000000" points="470.4078,-33.5798 460.0003,-31.5964 466.8994,-39.6372 470.4078,-33.5798"/>
</g>
<!-- \\APP\\Controllers\\AdminController&#45;&gt;\\APP\\Controllers\\CMSController -->
<g id="edge14" class="edge">
<title>\\APP\\Controllers\\AdminController&#45;&gt;\\APP\\Controllers\\CMSController</title>
<path fill="none" stroke="#000000" d="M359.162,-2311C338.4583,-2311 315.164,-2311 294.2236,-2311"/>
<polygon fill="none" stroke="#000000" points="294.1546,-2307.5001 284.1546,-2311 294.1545,-2314.5001 294.1546,-2307.5001"/>
</g>
<!-- \\APP\\Controller -->
<g id="node18" class="node">
<title>\\APP\\Controller</title>
<polygon fill="none" stroke="#000000" points="108,-2329 24,-2329 24,-2293 108,-2293 108,-2329"/>
<text text-anchor="middle" x="66" y="-2308.2" font-family="Courier,monospace" font-size="11.00" fill="#000000">Controller</text>
</g>
<!-- \\APP\\Controllers\\CMSController&#45;&gt;\\APP\\Controller -->
<g id="edge15" class="edge">
<title>\\APP\\Controllers\\CMSController&#45;&gt;\\APP\\Controller</title>
<path fill="none" stroke="#000000" d="M179.932,-2311C160.2566,-2311 137.875,-2311 118.1885,-2311"/>
<polygon fill="none" stroke="#000000" points="118.168,-2307.5001 108.168,-2311 118.168,-2314.5001 118.168,-2307.5001"/>
</g>
<!-- \\APP\\Helpers\\CMSHelper -->
<g id="node16" class="node">
<title>\\APP\\Helpers\\CMSHelper</title>
<polygon fill="none" stroke="#000000" points="653.7889,-1724 576.7889,-1724 576.7889,-1688 653.7889,-1688 653.7889,-1724"/>
<text text-anchor="middle" x="615.2889" y="-1703.2" font-family="Courier,monospace" font-size="11.00" fill="#000000">CMSHelper</text>
</g>
<!-- \\APP\\Router -->
<g id="node17" class="node">
<title>\\APP\\Router</title>
<polygon fill="none" stroke="#000000" points="643.7889,-1670 586.7889,-1670 586.7889,-1634 643.7889,-1634 643.7889,-1670"/>
<text text-anchor="middle" x="615.2889" y="-1649.2" font-family="Courier,monospace" font-size="11.00" fill="#000000">Router</text>
</g>
<!-- \\APP\\SessionModel -->
<g id="node19" class="node">
<title>\\APP\\SessionModel</title>
<polygon fill="none" stroke="#000000" points="664.2889,-1616 566.2889,-1616 566.2889,-1580 664.2889,-1580 664.2889,-1616"/>
<text text-anchor="middle" x="615.2889" y="-1595.2" font-family="Courier,monospace" font-size="11.00" fill="#000000">SessionModel</text>
</g>
<!-- Model -->
<g id="node43" class="node">
<title>Model</title>
<ellipse fill="none" stroke="#000000" cx="418.3945" cy="-2960" rx="39.7935" ry="18"/>
<text text-anchor="middle" x="418.3945" y="-2956.3" font-family="Times,serif" font-size="14.00" fill="#c0c0c0">Model</text>
</g>
<!-- \\APP\\SessionModel&#45;&gt;Model -->
<g id="edge16" class="edge">
<title>\\APP\\SessionModel&#45;&gt;Model</title>
<path fill="none" stroke="#000000" d="M566.0724,-1598.7446C546.3993,-1601.7637 525.4477,-1608.969 512.7889,-1625 477.0416,-1670.2705 495.6698,-2605.785 488.3397,-2663 475.4293,-2763.772 442.606,-2880.2458 426.9521,-2932.3362"/>
<polygon fill="none" stroke="#000000" points="423.5259,-2931.574 423.9733,-2942.1594 430.2247,-2933.6054 423.5259,-2931.574"/>
</g>
<!-- \\APP\\ModelTest -->
<g id="node20" class="node">
<title>\\APP\\ModelTest</title>
<polygon fill="none" stroke="#000000" points="653.7889,-1562 576.7889,-1562 576.7889,-1526 653.7889,-1526 653.7889,-1562"/>
<text text-anchor="middle" x="615.2889" y="-1541.2" font-family="Courier,monospace" font-size="11.00" fill="#000000">ModelTest</text>
</g>
<!-- TestCase -->
<g id="node44" class="node">
<title>TestCase</title>
<ellipse fill="none" stroke="#000000" cx="418.3945" cy="-1436" rx="53.8905" ry="18"/>
<text text-anchor="middle" x="418.3945" y="-1432.3" font-family="Times,serif" font-size="14.00" fill="#c0c0c0">TestCase</text>
</g>
<!-- \\APP\\ModelTest&#45;&gt;TestCase -->
<g id="edge20" class="edge">
<title>\\APP\\ModelTest&#45;&gt;TestCase</title>
<path fill="none" stroke="#000000" d="M582.3332,-1525.9232C547.3133,-1506.7142 492.0585,-1476.406 455.5241,-1456.3662"/>
<polygon fill="none" stroke="#000000" points="457.1136,-1453.2462 446.6627,-1451.5056 453.7472,-1459.3836 457.1136,-1453.2462"/>
</g>
<!-- \\API\\DB\\Cache\\Handler -->
<g id="node21" class="node">
<title>\\API\\DB\\Cache\\Handler</title>
<polygon fill="none" stroke="#000000" points="647.2889,-1310 583.2889,-1310 583.2889,-1274 647.2889,-1274 647.2889,-1310"/>
<text text-anchor="middle" x="615.2889" y="-1289.2" font-family="Courier,monospace" font-size="11.00" fill="#000000">Handler</text>
</g>
<!-- \\API\\DB\\ORM\\Entity -->
<g id="node22" class="node">
<title>\\API\\DB\\ORM\\Entity</title>
<polygon fill="none" stroke="#000000" points="643.7889,-1230 586.7889,-1230 586.7889,-1194 643.7889,-1194 643.7889,-1230"/>
<text text-anchor="middle" x="615.2889" y="-1209.2" font-family="Courier,monospace" font-size="11.00" fill="#000000">Entity</text>
</g>
<!-- \\API\\DB\\ORM\\Migration -->
<g id="node23" class="node">
<title>\\API\\DB\\ORM\\Migration</title>
<polygon fill="none" stroke="#000000" points="653.7889,-1176 576.7889,-1176 576.7889,-1140 653.7889,-1140 653.7889,-1176"/>
<text text-anchor="middle" x="615.2889" y="-1155.2" font-family="Courier,monospace" font-size="11.00" fill="#000000">Migration</text>
</g>
<!-- \\API\\DB\\ORM\\Table -->
<g id="node24" class="node">
<title>\\API\\DB\\ORM\\Table</title>
<polygon fill="none" stroke="#000000" points="642.2889,-1122 588.2889,-1122 588.2889,-1086 642.2889,-1086 642.2889,-1122"/>
<text text-anchor="middle" x="615.2889" y="-1101.2" font-family="Courier,monospace" font-size="11.00" fill="#000000">Table</text>
</g>
<!-- \\API\\DB\\Cache -->
<g id="node25" class="node">
<title>\\API\\DB\\Cache</title>
<polygon fill="none" stroke="#000000" points="642.2889,-1068 588.2889,-1068 588.2889,-1032 642.2889,-1032 642.2889,-1068"/>
<text text-anchor="middle" x="615.2889" y="-1047.2" font-family="Courier,monospace" font-size="11.00" fill="#000000">Cache</text>
</g>
<!-- \\API\\DB\\ConnectionProxy -->
<g id="node26" class="node">
<title>\\API\\DB\\ConnectionProxy</title>
<polygon fill="none" stroke="#000000" points="674.2889,-1014 556.2889,-1014 556.2889,-978 674.2889,-978 674.2889,-1014"/>
<text text-anchor="middle" x="615.2889" y="-993.2" font-family="Courier,monospace" font-size="11.00" fill="#000000">ConnectionProxy</text>
</g>
<!-- \\API\\DB\\ORM -->
<g id="node27" class="node">
<title>\\API\\DB\\ORM</title>
<polygon fill="none" stroke="#000000" points="642.2889,-960 588.2889,-960 588.2889,-924 642.2889,-924 642.2889,-960"/>
<text text-anchor="middle" x="615.2889" y="-939.2" font-family="Courier,monospace" font-size="11.00" fill="#000000">ORM</text>
</g>
<!-- \\API\\DB\\Query -->
<g id="node28" class="node">
<title>\\API\\DB\\Query</title>
<polygon fill="none" stroke="#000000" points="642.2889,-906 588.2889,-906 588.2889,-870 642.2889,-870 642.2889,-906"/>
<text text-anchor="middle" x="615.2889" y="-885.2" font-family="Courier,monospace" font-size="11.00" fill="#000000">Query</text>
</g>
<!-- \\API\\Session\\Handler\\CacheHandler -->
<g id="node29" class="node">
<title>\\API\\Session\\Handler\\CacheHandler</title>
<polygon fill="none" stroke="#000000" points="664.2889,-798 566.2889,-798 566.2889,-762 664.2889,-762 664.2889,-798"/>
<text text-anchor="middle" x="615.2889" y="-777.2" font-family="Courier,monospace" font-size="11.00" fill="#000000">CacheHandler</text>
</g>
<!-- \\API\\Session\\Handler\\DBHandler -->
<g id="node30" class="node">
<title>\\API\\Session\\Handler\\DBHandler</title>
<polygon fill="none" stroke="#000000" points="653.7889,-744 576.7889,-744 576.7889,-708 653.7889,-708 653.7889,-744"/>
<text text-anchor="middle" x="615.2889" y="-723.2" font-family="Courier,monospace" font-size="11.00" fill="#000000">DBHandler</text>
</g>
<!-- \\API\\Session\\User -->
<g id="node31" class="node">
<title>\\API\\Session\\User</title>
<polygon fill="none" stroke="#000000" points="642.2889,-690 588.2889,-690 588.2889,-654 642.2889,-654 642.2889,-690"/>
<text text-anchor="middle" x="615.2889" y="-669.2" font-family="Courier,monospace" font-size="11.00" fill="#000000">User</text>
</g>
<!-- \\API\\Store\\Response\\Error -->
<g id="node32" class="node">
<title>\\API\\Store\\Response\\Error</title>
<polygon fill="none" stroke="#000000" points="642.2889,-212 588.2889,-212 588.2889,-176 642.2889,-176 642.2889,-212"/>
<text text-anchor="middle" x="615.2889" y="-191.2" font-family="Courier,monospace" font-size="11.00" fill="#000000">Error</text>
</g>
<!-- \\API\\Store\\Response -->
<g id="node35" class="node">
<title>\\API\\Store\\Response</title>
<polygon fill="none" stroke="#000000" points="453.8945,-185 382.8945,-185 382.8945,-149 453.8945,-149 453.8945,-185"/>
<text text-anchor="middle" x="418.3945" y="-164.2" font-family="Courier,monospace" font-size="11.00" fill="#000000">Response</text>
</g>
<!-- \\API\\Store\\Response\\Error&#45;&gt;\\API\\Store\\Response -->
<g id="edge17" class="edge">
<title>\\API\\Store\\Response\\Error&#45;&gt;\\API\\Store\\Response</title>
<path fill="none" stroke="#000000" d="M587.9116,-190.2458C556.0383,-185.875 502.8834,-178.5859 464.5855,-173.3341"/>
<polygon fill="none" stroke="#000000" points="464.5904,-169.8021 454.2076,-171.911 463.6393,-176.7372 464.5904,-169.8021"/>
</g>
<!-- \\API\\Store\\Response\\Result -->
<g id="node33" class="node">
<title>\\API\\Store\\Response\\Result</title>
<polygon fill="none" stroke="#000000" points="643.7889,-158 586.7889,-158 586.7889,-122 643.7889,-122 643.7889,-158"/>
<text text-anchor="middle" x="615.2889" y="-137.2" font-family="Courier,monospace" font-size="11.00" fill="#000000">Result</text>
</g>
<!-- \\API\\Store\\Response\\Result&#45;&gt;\\API\\Store\\Response -->
<g id="edge18" class="edge">
<title>\\API\\Store\\Response\\Result&#45;&gt;\\API\\Store\\Response</title>
<path fill="none" stroke="#000000" d="M586.6588,-143.926C554.5843,-148.3244 502.139,-155.5162 464.3181,-160.7025"/>
<polygon fill="none" stroke="#000000" points="463.4993,-157.282 454.0675,-162.1082 464.4503,-164.2171 463.4993,-157.282"/>
</g>
<!-- \\API\\Store\\Request -->
<g id="node34" class="node">
<title>\\API\\Store\\Request</title>
<polygon fill="none" stroke="#000000" points="647.2889,-104 583.2889,-104 583.2889,-68 647.2889,-68 647.2889,-104"/>
<text text-anchor="middle" x="615.2889" y="-83.2" font-family="Courier,monospace" font-size="11.00" fill="#000000">Request</text>
</g>
<!-- \\API\\App -->
<g id="node36" class="node">
<title>\\API\\App</title>
<polygon fill="none" stroke="#000000" points="642.2889,-582 588.2889,-582 588.2889,-546 642.2889,-546 642.2889,-582"/>
<text text-anchor="middle" x="615.2889" y="-561.2" font-family="Courier,monospace" font-size="11.00" fill="#000000">App</text>
</g>
<!-- \\API\\DB -->
<g id="node37" class="node">
<title>\\API\\DB</title>
<polygon fill="none" stroke="#000000" points="642.2889,-528 588.2889,-528 588.2889,-492 642.2889,-492 642.2889,-528"/>
<text text-anchor="middle" x="615.2889" y="-507.2" font-family="Courier,monospace" font-size="11.00" fill="#000000">DB</text>
</g>
<!-- \\API\\Exception -->
<g id="node38" class="node">
<title>\\API\\Exception</title>
<polygon fill="none" stroke="#000000" points="653.7889,-474 576.7889,-474 576.7889,-438 653.7889,-438 653.7889,-474"/>
<text text-anchor="middle" x="615.2889" y="-453.2" font-family="Courier,monospace" font-size="11.00" fill="#000000">Exception</text>
</g>
<!-- \\API\\Input -->
<g id="node39" class="node">
<title>\\API\\Input</title>
<polygon fill="none" stroke="#000000" points="642.2889,-420 588.2889,-420 588.2889,-384 642.2889,-384 642.2889,-420"/>
<text text-anchor="middle" x="615.2889" y="-399.2" font-family="Courier,monospace" font-size="11.00" fill="#000000">Input</text>
</g>
<!-- \\API\\Session -->
<g id="node40" class="node">
<title>\\API\\Session</title>
<polygon fill="none" stroke="#000000" points="647.2889,-366 583.2889,-366 583.2889,-330 647.2889,-330 647.2889,-366"/>
<text text-anchor="middle" x="615.2889" y="-345.2" font-family="Courier,monospace" font-size="11.00" fill="#000000">Session</text>
</g>
<!-- \\API\\Store -->
<g id="node41" class="node">
<title>\\API\\Store</title>
<polygon fill="none" stroke="#000000" points="642.2889,-312 588.2889,-312 588.2889,-276 642.2889,-276 642.2889,-312"/>
<text text-anchor="middle" x="615.2889" y="-291.2" font-family="Courier,monospace" font-size="11.00" fill="#000000">Store</text>
</g>
<!-- \\API\\InputTest -->
<g id="node42" class="node">
<title>\\API\\InputTest</title>
<polygon fill="none" stroke="#000000" points="653.7889,-636 576.7889,-636 576.7889,-600 653.7889,-600 653.7889,-636"/>
<text text-anchor="middle" x="615.2889" y="-615.2" font-family="Courier,monospace" font-size="11.00" fill="#000000">InputTest</text>
</g>
<!-- \\API\\InputTest&#45;&gt;TestCase -->
<g id="edge19" class="edge">
<title>\\API\\InputTest&#45;&gt;TestCase</title>
<path fill="none" stroke="#000000" d="M576.7492,-616.8468C554.8102,-618.376 528.6256,-624.2882 512.7889,-642 460.5901,-700.3796 427.0712,-1272.7687 419.8585,-1407.6393"/>
<polygon fill="none" stroke="#000000" points="416.3461,-1407.7845 419.3128,-1417.9555 423.3363,-1408.1544 416.3461,-1407.7845"/>
</g>
</g>
</svg>
